<svg id="Layer_1" data-name="Layer 1" xmlns="http://www.w3.org/2000/svg" viewBox="0 0 1080 1080"><defs><style>.cls-1{fill:#dc143c;}.cls-2{fill:#fff;}.cls-3{font-size:238.34px;}.cls-3,.cls-4,.cls-5{fill:#003893;font-family:TrajanPro-Bold, Trajan Pro;font-weight:700;}.cls-4{font-size:223.62px;}.cls-5{font-size:138.89px;}</style></defs><path class="cls-1" d="M424.13,268.46H556.64c-21,42.52-41.13,83.21-63.39,128.22-1.56-8.1-2.71-12.53-3.23-17-2.14-18.53-4.89-37-5.78-55.64-.5-10.26-5-15.8-13.05-20.87C455.05,293,439.42,282,423.58,271.35Z"/><path class="cls-1" d="M236.9,572.31,94.28,267.54c28.71,0,55-.28,81.18.38,3,.08,6.95,4.89,8.7,8.39Q232.1,372.51,279.42,469c1.74,3.55,3.14,9,1.66,12.14C267.17,510.82,252.6,540.17,236.9,572.31Z"/><path class="cls-2" d="M118.84,293.73a34.31,34.31,0,0,0,63.86,0,31.93,31.93,0,1,1-63.86,0"/><circle class="cls-2" cx="150.77" cy="308.59" r="14.86"/><g id="d"><g id="c"><path id="b" class="cls-2" d="M156.46,294.86l-1.66-6.51-4,5.38"/><path id="b-2" data-name="b" class="cls-2" d="M161.28,298.08l1-6.65-5.78,3.43"/><path id="b-3" data-name="b" class="cls-2" d="M164.5,302.9l3.43-5.78-6.65,1"/></g><g id="c-2" data-name="c"><path id="b-4" data-name="b" class="cls-2" d="M165.63,308.59l5.38-4-6.51-1.66"/><path id="b-5" data-name="b" class="cls-2" d="M164.5,314.27l6.51-1.66-5.38-4"/><path id="b-6" data-name="b" class="cls-2" d="M161.28,319.09l6.65,1-3.43-5.78"/></g></g><g id="d-2" data-name="d"><g id="c-3" data-name="c"><path id="b-7" data-name="b" class="cls-2" d="M145.08,294.86l1.66-6.51,4,5.38"/><path id="b-8" data-name="b" class="cls-2" d="M140.26,298.08l-1-6.65,5.78,3.43"/><path id="b-9" data-name="b" class="cls-2" d="M137,302.9l-3.43-5.78,6.65,1"/></g><g id="c-4" data-name="c"><path id="b-10" data-name="b" class="cls-2" d="M135.91,308.59l-5.38-4L137,302.9"/><path id="b-11" data-name="b" class="cls-2" d="M137,314.27l-6.51-1.66,5.38-4"/><path id="b-12" data-name="b" class="cls-2" d="M140.26,319.09l-6.65,1,3.43-5.78"/></g></g><path class="cls-1" d="M404.79,572.36,262.17,267.55c28.82,0,55.11-.28,81.37.39,3,.07,6.81,5,8.56,8.55q47.81,96.28,94.9,192.9c2,4.13,2.43,10.72.55,14.75C434.31,512.6,420.27,540.69,404.79,572.36Z"/><circle class="cls-2" cx="401.41" cy="472.43" r="18.42"/><g id="g"><g id="f"><path id="e" class="cls-2" d="M406.18,490.22l-4.77,11.26-4.77-11.26"/><path id="e-2" data-name="e" class="cls-2" d="M396.64,454.64l4.77-11.25,4.77,11.25"/></g><g id="f-2" data-name="f"><path id="e-3" data-name="e" class="cls-2" d="M383.62,477.2l-11.25-4.77,11.25-4.76"/><path id="e-4" data-name="e" class="cls-2" d="M419.2,467.67l11.25,4.76L419.2,477.2"/></g></g><g id="g-2" data-name="g"><g id="f-3" data-name="f"><path id="e-5" data-name="e" class="cls-2" d="M396.64,490.22l-9.75,7.36,1.5-12.12"/><path id="e-6" data-name="e" class="cls-2" d="M406.18,454.64l9.75-7.36-1.49,12.13"/></g><g id="f-4" data-name="f"><path id="e-7" data-name="e" class="cls-2" d="M383.62,467.67l-7.36-9.76,12.13,1.5"/><path id="e-8" data-name="e" class="cls-2" d="M419.2,477.2l7.36,9.75-12.12-1.49"/></g></g><g id="g-3" data-name="g"><g id="f-5" data-name="f"><path id="e-9" data-name="e" class="cls-2" d="M388.39,485.46,376.26,487l7.36-9.75"/><path id="e-10" data-name="e" class="cls-2" d="M414.44,459.41l12.12-1.5-7.36,9.76"/></g><g id="f-6" data-name="f"><path id="e-11" data-name="e" class="cls-2" d="M388.39,459.41l-1.5-12.13,9.75,7.36"/><path id="e-12" data-name="e" class="cls-2" d="M414.44,485.46l1.49,12.12-9.75-7.36"/></g></g><text class="cls-3" transform="translate(542.53 572.34) scale(1.04 1)">IZE</text><text class="cls-4" transform="translate(117.81 749.38) scale(1.04 1)">c</text><text class="cls-5" transform="translate(281.07 751.31) scale(1.04 1)">ONSULT</text><path class="cls-1" d="M758.4,383.45c0-.26-.37-.23-.58-.29a301.9,301.9,0,0,0-38.32-9.07q-13.29-2.26-26.92-3.39-11.12-.9-22.32-1.05-12.84-.16-25.6.65a326.26,326.26,0,0,0-48.06,6.62c-6.81,1.47-13.5,3.15-20,5.12a1.12,1.12,0,0,1-1-.05l-14.24-7.58-.2-.15c1.14-.4,2.24-.81,3.37-1.18a276.36,276.36,0,0,1,36.73-9.28Q616.38,361,632,359.51q11.71-1.11,23.53-1.43c4.67-.12,9.35-.19,14-.12,6.8.1,13.58.37,20.34.85a341.91,341.91,0,0,1,47.07,6.63q6.12,1.31,12.12,2.83a2.29,2.29,0,0,0,1.61-.1,20.55,20.55,0,0,1,6.37-1.39,32.54,32.54,0,0,1,10.94.79,8.82,8.82,0,0,1,1.71.59,2.22,2.22,0,0,0,1.68.11q8.48-2.16,17.19-3.87,15.86-3.12,32.2-4.75,12.32-1.23,24.75-1.57t24.79.19a343.73,343.73,0,0,1,57.92,7.35,259.61,259.61,0,0,1,27.68,7.46c1.12.37,2.23.78,3.42,1.2l-5.75,3.06c-2.88,1.53-5.76,3.05-8.63,4.59a1.33,1.33,0,0,1-1.17.09,293.86,293.86,0,0,0-42.63-9.13q-11.54-1.63-23.26-2.46-9.37-.65-18.82-.78-9.88-.13-19.75.32a316.66,316.66,0,0,0-36.46,3.79,304.8,304.8,0,0,0-40.27,9.4c-.2.06-.56,0-.57.29Z"/><path class="cls-1" d="M760.11,351.44a75.23,75.23,0,0,0-3.64-8.25c-6-11.59-15-22-27.57-31-1.18-.84-2.39-1.66-3.61-2.47-.3-.2-.43-.38-.4-.68.93-10.47,6.3-19.87,15.53-28.33a99.39,99.39,0,0,1,19.32-13.44.92.92,0,0,1,1,0c10.51,5.81,19.49,12.47,25.85,20.58a40.83,40.83,0,0,1,8.15,16.84,42.76,42.76,0,0,1,.67,4.33.7.7,0,0,1-.41.72,94.87,94.87,0,0,0-24.25,22.39,76.29,76.29,0,0,0-10.32,18.72c-.07.16-.13.33-.2.49S760.22,351.38,760.11,351.44Z"/><path class="cls-1" d="M761.8,361.66c.31-1.28.58-2.57.93-3.84a72.25,72.25,0,0,1,11-23,88.79,88.79,0,0,1,21.5-21.07c12.55-8.85,27.53-15.32,44.45-19.88q8.61-2.31,17.59-3.9c.83-.15.82-.15.76.39a69.56,69.56,0,0,1-2.15,11.79A67.8,67.8,0,0,1,847.48,321c-.23.36-.59.37-1,.38a145.59,145.59,0,0,0-15.26,1.31q-24.11,3.36-42.67,14.1a77.45,77.45,0,0,0-23.39,20.15c-.59.77-1.13,1.57-1.66,2.36s-1,1.6-1.53,2.4Z"/><path class="cls-1" d="M758.55,361.71c-1.16-1.76-2.31-3.52-3.64-5.23-10-12.77-24.43-22.54-43.93-28.91A128.21,128.21,0,0,0,683.64,322c-3.24-.32-6.49-.56-9.76-.65a1.11,1.11,0,0,1-1.07-.48,68.2,68.2,0,0,1-8.76-20.3,78.47,78.47,0,0,1-1.75-10.12c-.07-.68-.08-.68.9-.5a180.79,180.79,0,0,1,41.54,12.31c16.87,7.53,30,17.31,39.4,29.24a72.88,72.88,0,0,1,13.67,27C758.09,359.56,758.31,360.64,758.55,361.71Z"/><path class="cls-1" d="M754.23,362.88c-1.16-1-2.27-2-3.48-3-7.57-6.12-17.08-10.41-28.27-13.07a160.72,160.72,0,0,0-18-3c-8.72-1.05-17.52-1.6-26.36-1.85q-7.7-.21-15.41-.17-9.84.06-19.69.19a3,3,0,0,1-1.78-.39,82.59,82.59,0,0,1-19.58-16.82,28.88,28.88,0,0,1-2.34-3.22c1.38.5,2.63.93,3.92,1.3a65.44,65.44,0,0,0,13.7,2.22,150.27,150.27,0,0,0,19.1-.26c4.24-.27,8.47-.69,12.74-.65a134,134,0,0,1,41.27,6.36,97.68,97.68,0,0,1,22.51,10.67,71.55,71.55,0,0,1,18.82,17.17,33.84,33.84,0,0,1,2.92,4.5Z"/><path class="cls-1" d="M900.91,321.68a29.91,29.91,0,0,1-3.28,4.33,84.17,84.17,0,0,1-18.81,15.72,1.48,1.48,0,0,1-.91.25l-14.5-.15c-3.23,0-6.45-.07-9.68-.06-7.88,0-15.75.21-23.59.73a214.14,214.14,0,0,0-29.73,3.74c-14.08,2.95-25.51,8.35-34,16.42-.1.1-.22.19-.35.31-.1-.21.08-.35.16-.49a62,62,0,0,1,15.89-17.31A93.35,93.35,0,0,1,808.84,331,123.46,123.46,0,0,1,836,325a150.06,150.06,0,0,1,16.58-.89c3,0,5.88.26,8.81.45,4.67.32,9.35.61,14,.65a89.37,89.37,0,0,0,15.89-1.1,50.39,50.39,0,0,0,9.08-2.39l.44-.13Z"/><path class="cls-1" d="M932.6,339.68l-5.43,8.63c-2.54,4-5.09,8-7.6,12.06-.23.37-.46.42-1,.32q-14.4-2.62-29.18-4-12.81-1.23-25.73-1.53c-8.78-.2-17.55-.11-26.31.34a349.46,349.46,0,0,0-53.78,6.9c-4.07.85-8.1,1.76-12.08,2.77a2.73,2.73,0,0,1-1.72-.25c-.31-.11,0-.27.15-.37a44.9,44.9,0,0,1,5.1-4.28c8.23-6,18.39-9.8,30.11-11.86a225.65,225.65,0,0,1,22.8-2.78c6.72-.49,13.45-.73,20.2-.83,4.72-.07,9.44-.06,14.17,0,5.16,0,10.32.05,15.47.16,4.31.1,8.6.32,12.9.48a172.76,172.76,0,0,0,21-.15,54.42,54.42,0,0,0,17.67-4c1.11-.49,2.12-1.07,3.2-1.6Z"/><path class="cls-1" d="M750.77,364.83a3.4,3.4,0,0,1-2.46.15,340.39,340.39,0,0,0-42.12-7.59q-13.05-1.53-26.27-2.07-9.07-.37-18.16-.29-13.39.11-26.66,1.25-16.85,1.44-33.23,4.41c-.64.12-.87,0-1.11-.36Q594.37,350.18,588,340a4.19,4.19,0,0,1-.24-.42.62.62,0,0,1,.39.12c4.74,2.73,10.34,4.24,16.42,5.06a118.76,118.76,0,0,0,17.4.82c6.75-.09,13.48-.51,20.22-.69,3.7-.09,7.42-.1,11.12-.12,4.93,0,9.87-.1,14.8-.08,9.77,0,19.52.37,29.21,1.28a178.19,178.19,0,0,1,23,3.39c12.46,2.84,22.55,7.8,30.1,15C750.48,364.52,750.63,364.68,750.77,364.83Z"/><path class="cls-1" d="M754.31,362.84c.06,0,.11.12,0,.14s-.09-.05-.11-.1Z"/><path class="cls-1" d="M900.83,321.62l.12,0,0,.1Z"/><path class="cls-1" d="M932.5,339.62l.12,0,0,.1Z"/></svg>